<svg xmlns="http://www.w3.org/2000/svg" xmlns:xlink="http://www.w3.org/1999/xlink" version="1.1" x="0px" y="0px" viewBox="0 0 24 30" style="enable-background:new 0 0 24 24;" xml:space="preserve"><path d="M19.1,12.611V17.5c0,2.537-2.063,4.6-4.6,4.6h-8c-2.537,0-4.6-2.063-4.6-4.6v-8c0-2.537,2.063-4.6,4.6-4.6h4.889  c0.332,0,0.6,0.269,0.6,0.6s-0.269,0.6-0.6,0.6H6.5c-1.875,0-3.4,1.525-3.4,3.4v8c0,1.875,1.525,3.4,3.4,3.4h8  c1.875,0,3.4-1.525,3.4-3.4v-4.889c0-0.332,0.269-0.6,0.6-0.6S19.1,12.28,19.1,12.611z M21.5,4.9h-2.4V2.5  c0-0.332-0.269-0.6-0.6-0.6s-0.6,0.269-0.6,0.6v2.4h-2.4c-0.332,0-0.6,0.269-0.6,0.6s0.269,0.6,0.6,0.6h2.4v2.4  c0,0.332,0.269,0.6,0.6,0.6s0.6-0.269,0.6-0.6V6.1h2.4c0.332,0,0.6-0.269,0.6-0.6S21.832,4.9,21.5,4.9z"/></svg>