<svg xmlns="http://www.w3.org/2000/svg" xmlns:xlink="http://www.w3.org/1999/xlink" version="1.1" x="0px" y="0px" viewBox="0 0 100 125" style="enable-background:new 0 0 100 100;" xml:space="preserve"><ellipse transform="matrix(0.7071 -0.7071 0.7071 0.7071 -6.0696 17.8885)" cx="18.6" cy="16.3" rx="1.5" ry="1.5"/><path d="M54.6,18.4c-3.1-3.2-8.3-3.2-11.4,0l-8.2,8.2L22.4,12.4c-1-1.1-2.4-1.7-3.9-1.8c-1.5,0-2.9,0.5-4,1.6s-1.6,2.5-1.6,4  s0.7,2.9,1.8,3.9L29,32.6l-9.3,9.3c-1.5,1.5-2.4,3.6-2.4,5.7s0.8,4.2,2.4,5.7L55,88.7c1.6,1.6,3.6,2.4,5.7,2.4s4.1-0.8,5.7-2.4  l23.5-23.5c3.2-3.2,3.2-8.3,0-11.4L54.6,18.4z M88.5,63.8L65,87.3c-2.4,2.4-6.2,2.4-8.6,0L21,52c-1.1-1.1-1.8-2.7-1.8-4.3  s0.6-3.2,1.8-4.3l10.1-10.1c0.2-0.2,0.3-0.5,0.3-0.7c0-0.3-0.1-0.5-0.3-0.7L16,18.6c-0.7-0.6-1.1-1.5-1.1-2.5s0.3-1.9,1-2.5  c0.7-0.7,1.5-1,2.5-1c0,0,0.1,0,0.1,0c1,0,1.8,0.4,2.5,1.1l13.2,15.1c0.2,0.2,0.4,0.3,0.7,0.3c0.3,0,0.5-0.1,0.7-0.3l9-9  c2.4-2.4,6.2-2.4,8.6,0l35.4,35.4C90.9,57.6,90.9,61.4,88.5,63.8z"/><path d="M49.4,34.6c0.1,0,0.2,0,0.3-0.1c0.2-0.2,1.5-1.6,1.5-2.8c0-0.5-0.2-0.9-0.5-1.2c-0.3-0.3-0.8-0.5-1.2-0.5c0,0,0,0,0,0  c-0.9,0-1.7,0.8-1.7,1.7v0c0,1.1,1.3,2.7,1.4,2.8C49.2,34.6,49.3,34.6,49.4,34.6z"/><path d="M51.1,43L51.1,43c0-1.1-1.3-2.7-1.4-2.8c-0.1-0.1-0.2-0.1-0.3-0.1c-0.1,0-0.2,0-0.3,0.1c-0.2,0.2-1.5,1.6-1.5,2.8  c0,1,0.8,1.7,1.7,1.7c0,0,0,0,0,0C50.4,44.7,51.1,43.9,51.1,43z"/><path d="M52.4,37.4c0,0.1,0,0.2,0.1,0.3c0.2,0.2,1.6,1.5,2.8,1.5c0,0,0,0,0,0c0.9,0,1.7-0.8,1.7-1.7c0-1-0.8-1.7-1.7-1.7  c0,0,0,0,0,0c-1.1,0-2.7,1.3-2.8,1.4C52.4,37.2,52.4,37.3,52.4,37.4z"/><path d="M43.7,39.1c1.1,0,2.7-1.3,2.8-1.4c0.1-0.1,0.1-0.2,0.1-0.3c0-0.1,0-0.2-0.1-0.3c-0.2-0.2-1.6-1.5-2.8-1.5c0,0,0,0,0,0  c-0.9,0-1.7,0.8-1.7,1.7C42,38.3,42.8,39.1,43.7,39.1C43.7,39.1,43.7,39.1,43.7,39.1z"/><path d="M51.7,35.5C51.8,35.5,51.8,35.5,51.7,35.5c0.2,0,2.2-0.1,3.1-0.9c0.3-0.3,0.5-0.8,0.5-1.2c0-0.5-0.2-0.9-0.5-1.2  c-0.7-0.7-1.8-0.7-2.4,0c-0.8,0.8-1,2.8-1,3c0,0.1,0,0.2,0.1,0.3C51.6,35.5,51.7,35.5,51.7,35.5z"/><path d="M47.3,39.1c-0.2,0-2.2,0.1-3,0.9c-0.7,0.7-0.7,1.8,0,2.4c0.3,0.3,0.8,0.5,1.2,0.5c0.4,0,0.9-0.2,1.2-0.5c0.8-0.8,1-2.8,1-3  c0-0.1,0-0.2-0.1-0.3S47.4,39.1,47.3,39.1z"/><path d="M51.8,39.4c-0.1,0-0.2,0-0.3,0.1c-0.1,0.1-0.1,0.2-0.1,0.3c0,0.2,0.1,2.2,0.9,3c0.3,0.3,0.8,0.5,1.2,0.5c0,0,0,0,0,0  c0.5,0,0.9-0.2,1.2-0.5c0.3-0.3,0.5-0.8,0.5-1.2c0-0.5-0.2-0.9-0.5-1.2C54,39.5,52,39.4,51.8,39.4z"/><path d="M47.2,35.6C47.2,35.6,47.2,35.6,47.2,35.6c0.1,0,0.2,0,0.3-0.1c0.1-0.1,0.1-0.2,0.1-0.3c0-0.2-0.1-2.2-0.9-3  c-0.7-0.7-1.8-0.7-2.4,0c-0.3,0.3-0.5,0.8-0.5,1.2c0,0.5,0.2,0.9,0.5,1.2C45,35.4,47,35.5,47.2,35.6z"/><path d="M61,37.3c0-6.3-5.1-11.5-11.5-11.5s-11.5,5.1-11.5,11.5s5.1,11.5,11.5,11.5S61,43.6,61,37.3z M40.1,37.3  c0-5.2,4.2-9.5,9.5-9.5S59,32,59,37.3s-4.2,9.5-9.5,9.5S40.1,42.5,40.1,37.3z"/><path d="M53.3,55.8C53.3,55.8,53.3,55.8,53.3,55.8c-1,0-1.7,0.8-1.7,1.7v0c0,1.1,1.3,2.7,1.4,2.8c0.1,0.1,0.1,0.1,0.3,0.1  c0.1,0,0.2,0,0.3-0.1c0.2-0.2,1.5-1.6,1.5-2.8c0-0.5-0.2-0.9-0.5-1.2S53.8,55.8,53.3,55.8z"/><path d="M53.4,65.8c-0.1,0-0.2,0-0.3,0.1c-0.2,0.2-1.5,1.6-1.5,2.8c0,1,0.8,1.7,1.7,1.7c0,0,0,0,0,0c0.5,0,0.9-0.2,1.2-0.5  c0.3-0.3,0.5-0.8,0.5-1.2c0-1.1-1.3-2.7-1.4-2.8C53.5,65.9,53.5,65.8,53.4,65.8z"/><path d="M59.3,61.5C59.3,61.5,59.3,61.5,59.3,61.5c-1.2,0-2.7,1.3-2.8,1.4c-0.1,0.1-0.1,0.2-0.1,0.3c0,0.1,0,0.2,0.1,0.3  c0.2,0.2,1.6,1.5,2.8,1.5c0,0,0,0,0,0c0.9,0,1.7-0.8,1.7-1.7C61,62.2,60.2,61.5,59.3,61.5z"/><path d="M47.7,64.9c1.1,0,2.7-1.3,2.8-1.4c0.1-0.1,0.1-0.2,0.1-0.3c0-0.1,0-0.2-0.1-0.3c-0.2-0.2-1.6-1.5-2.8-1.5  c-0.5,0-0.9,0.2-1.2,0.5s-0.5,0.8-0.5,1.2C45.9,64.1,46.7,64.9,47.7,64.9C47.7,64.9,47.7,64.9,47.7,64.9z"/><path d="M55.7,61.3C55.7,61.3,55.7,61.3,55.7,61.3c0.2,0,2.2-0.1,3.1-0.9c0.3-0.3,0.5-0.8,0.5-1.2c0-0.5-0.2-0.9-0.5-1.2  s-0.8-0.5-1.2-0.5c-0.5,0-0.9,0.2-1.2,0.5c-0.8,0.8-1,2.8-1,3c0,0.1,0,0.2,0.1,0.3C55.5,61.2,55.6,61.3,55.7,61.3z"/><path d="M51.2,64.9c-0.2,0-2.2,0.1-3,0.9c-0.3,0.3-0.5,0.8-0.5,1.2c0,0.5,0.2,0.9,0.5,1.2c0.3,0.3,0.8,0.5,1.2,0.5  c0.4,0,0.9-0.2,1.2-0.5c0.8-0.8,1-2.8,1-3c0-0.1,0-0.2-0.1-0.3C51.4,64.9,51.3,64.9,51.2,64.9z"/><path d="M55.7,65.1c-0.1,0-0.2,0-0.3,0.1c-0.1,0.1-0.1,0.2-0.1,0.3c0,0.2,0.1,2.2,0.9,3c0.3,0.3,0.8,0.5,1.2,0.5c0,0,0,0,0,0  c0.5,0,0.9-0.2,1.2-0.5c0.3-0.3,0.5-0.8,0.5-1.2c0-0.5-0.2-0.9-0.5-1.2C57.9,65.3,55.9,65.2,55.7,65.1z"/><path d="M51.1,61.3C51.1,61.3,51.1,61.3,51.1,61.3c0.1,0,0.2,0,0.3-0.1c0.1-0.1,0.1-0.2,0.1-0.3c0-0.2-0.1-2.2-0.9-3  c-0.7-0.7-1.8-0.7-2.4,0c-0.3,0.3-0.5,0.8-0.5,1.2c0,0.5,0.2,0.9,0.5,1.2C48.9,61.2,50.9,61.3,51.1,61.3z"/><path d="M72.1,51.1C72.1,51.1,72,51.1,72.1,51.1c-1,0-1.7,0.8-1.7,1.7v0c0,1.1,1.3,2.7,1.4,2.8c0.1,0.1,0.2,0.1,0.3,0.1  c0.1,0,0.2,0,0.3-0.1c0.2-0.2,1.5-1.6,1.5-2.8C73.8,51.9,73,51.1,72.1,51.1z"/><path d="M72.1,61.2c-0.1,0-0.2,0-0.3,0.1c-0.2,0.2-1.5,1.6-1.5,2.8c0,1,0.8,1.7,1.7,1.7c0,0,0,0,0,0c0.9,0,1.7-0.8,1.7-1.7v0  c0-1.1-1.3-2.7-1.4-2.8C72.3,61.2,72.2,61.2,72.1,61.2z"/><path d="M78,56.8c-1.1,0-2.7,1.3-2.8,1.4c-0.1,0.1-0.1,0.2-0.1,0.3c0,0.1,0,0.2,0.1,0.3c0.2,0.2,1.6,1.5,2.8,1.5c0,0,0,0,0,0  c0.9,0,1.7-0.8,1.7-1.7c0-0.5-0.2-0.9-0.5-1.2S78.4,56.8,78,56.8C78,56.8,78,56.8,78,56.8z"/><path d="M66.4,60.3c1.1,0,2.7-1.3,2.8-1.4c0.1-0.1,0.1-0.2,0.1-0.3c0-0.1,0-0.2-0.1-0.3c-0.2-0.2-1.6-1.5-2.8-1.5  c-0.5,0-0.9,0.2-1.2,0.5s-0.5,0.8-0.5,1.2C64.6,59.5,65.4,60.3,66.4,60.3C66.4,60.3,66.4,60.3,66.4,60.3z"/><path d="M74.4,56.6C74.4,56.6,74.4,56.6,74.4,56.6c0.2,0,2.2-0.1,3.1-0.9c0.3-0.3,0.5-0.8,0.5-1.2c0-0.5-0.2-0.9-0.5-1.2  s-0.8-0.5-1.2-0.5c0,0,0,0,0,0c-0.5,0-0.9,0.2-1.2,0.5c-0.8,0.8-1,2.8-1,3c0,0.1,0,0.2,0.1,0.3C74.2,56.6,74.3,56.6,74.4,56.6z"/><path d="M69.9,60.3c-0.2,0-2.2,0.1-3,0.9c-0.3,0.3-0.5,0.8-0.5,1.2c0,0.5,0.2,0.9,0.5,1.2s0.8,0.5,1.2,0.5c0,0,0,0,0,0  c0.5,0,0.9-0.2,1.2-0.5c0.8-0.8,1-2.8,1-3c0-0.1,0-0.2-0.1-0.3C70.1,60.3,70,60.2,69.9,60.3z"/><path d="M74.4,60.5c-0.1,0-0.2,0-0.3,0.1c-0.1,0.1-0.1,0.2-0.1,0.3c0,0.2,0.1,2.2,0.9,3c0.3,0.3,0.8,0.5,1.2,0.5c0,0,0,0,0,0  c0.5,0,0.9-0.2,1.2-0.5c0.3-0.3,0.5-0.8,0.5-1.2s-0.2-0.9-0.5-1.2C76.6,60.6,74.6,60.5,74.4,60.5z"/><path d="M69.8,56.7C69.8,56.7,69.8,56.7,69.8,56.7c0.1,0,0.2,0,0.3-0.1c0.1-0.1,0.1-0.2,0.1-0.3c0-0.2-0.1-2.2-0.9-3  c-0.7-0.7-1.8-0.7-2.4,0c-0.3,0.3-0.5,0.8-0.5,1.2c0,0.5,0.2,0.9,0.5,1.2C67.6,56.5,69.6,56.7,69.8,56.7z"/><path d="M72.2,46.9c-5,0-9.3,3.3-10.9,7.8c-2.1-2-4.9-3.1-7.9-3.1C47.1,51.6,42,56.7,42,63s5.1,11.5,11.5,11.5  c4.9,0,9.3-3.2,10.9-7.8c2.1,1.9,4.8,3.1,7.9,3.1c6.3,0,11.5-5.1,11.5-11.5S78.5,46.9,72.2,46.9z M62.7,65c-0.9,4.3-4.8,7.5-9.3,7.5  c-5.2,0-9.5-4.2-9.5-9.5s4.2-9.5,9.5-9.5c2.7,0,5.4,1.2,7.2,3.3c0.1,0.1,0.1,0.1,0.2,0.1c-0.1,0.5-0.1,0.9-0.1,1.4  c0,2.4,0.8,4.7,2.1,6.6C62.8,65,62.7,65,62.7,65z M72.2,67.9c-5.2,0-9.5-4.2-9.5-9.5s4.2-9.5,9.5-9.5s9.5,4.2,9.5,9.5  S77.4,67.9,72.2,67.9z"/></svg>