<svg xmlns="http://www.w3.org/2000/svg" xmlns:xlink="http://www.w3.org/1999/xlink" version="1.1" x="0px" y="0px" viewBox="0 0 139 173.75" enable-background="new 0 0 139 139" xml:space="preserve"><path d="M101.912,38.089c-4.097-4.097-9.543-6.354-15.337-6.354c-5.793,0-11.239,2.257-15.335,6.354  c-0.283,0.283-0.556,0.572-0.763,0.807l-3.069,3.069c-0.2-1.784-0.98-3.506-2.315-4.841c-1.538-1.537-3.582-2.383-5.757-2.383  s-4.219,0.846-5.757,2.383c-10.849,10.851-9.081,23.564-8.343,27.015l-5.498,5.498l-0.002,0.001l-0.001,0.002l-6.56,6.559  c-0.281,0.281-0.439,0.663-0.439,1.061s0.158,0.779,0.439,1.061l28.505,28.506c0.281,0.281,0.663,0.439,1.061,0.439  s0.779-0.158,1.061-0.439l6.449-6.45c0.042-0.034,0.095-0.05,0.134-0.089s0.055-0.092,0.089-0.134l30.566-30.571  c0.295-0.263,0.585-0.536,0.871-0.821c4.097-4.096,6.353-9.543,6.353-15.336C108.265,47.631,106.009,42.185,101.912,38.089z   M62.741,103.644L36.357,77.259l4.439-4.439l26.384,26.385L62.741,103.644z M99.792,66.637c-0.243,0.242-0.492,0.477-0.81,0.763  L69.302,97.082L42.918,70.698l5.034-5.033c0.387-0.386,0.532-0.952,0.381-1.477c-0.04-0.137-3.808-13.767,7.367-24.943  c0.971-0.971,2.263-1.504,3.636-1.504s2.665,0.533,3.636,1.504c1.782,1.782,1.997,4.653,0.5,6.68  c-0.467,0.632-0.367,1.516,0.228,2.028c0.595,0.512,1.483,0.479,2.039-0.076l6.917-6.92c0.227-0.253,0.462-0.503,0.706-0.747  c3.529-3.53,8.223-5.475,13.214-5.475c4.992,0,9.686,1.944,13.216,5.475c3.529,3.529,5.473,8.222,5.473,13.214  S103.319,63.108,99.792,66.637z"/></svg>