<svg xmlns="http://www.w3.org/2000/svg" xmlns:xlink="http://www.w3.org/1999/xlink" version="1.1" x="0px" y="0px" viewBox="0 0 80 100" enable-background="new 0 0 80 80" xml:space="preserve"><g><path fill="#000000" d="M16.713,66.777H3.859V45.285h12.854V66.777z M4.859,65.777h10.854V46.285H4.859V65.777z"/><path fill="#000000" d="M28.567,66.777H15.713V45.285h12.854V66.777z M16.713,65.777h10.854V46.285H16.713V65.777z"/><path fill="#000000" d="M76.141,51.502H27.567v-6.217h48.573V51.502z M28.567,50.502h46.573v-4.217H28.567V50.502z"/><path fill="#000000" d="M52.354,59.139H27.567v-8.637h24.786V59.139z M28.567,58.139h22.786v-6.637H28.567V58.139z"/><path fill="#000000" d="M52.354,66.777H27.567v-8.639h24.786V66.777z M28.567,65.777h22.786v-6.639H28.567V65.777z"/><path fill="#000000" d="M76.139,59.139H51.354v-8.637h24.785V59.139z M52.354,58.139h22.785v-6.637H52.354V58.139z"/><path fill="#000000" d="M76.139,66.777H51.354v-8.639h24.785V66.777z M52.354,65.777h22.785v-6.639H52.354V65.777z"/><path fill="#000000" d="M76.141,27.283H27.567v-6.217h48.573V27.283z M28.567,26.283h46.573v-4.217H28.567V26.283z"/><path fill="#000000" d="M59.805,21.694H43.902v-9.942h15.902V21.694z M44.902,20.694h13.902v-7.942H44.902V20.694z"/><rect x="27.567" y="12.252" fill="#000000" width="1" height="9.314"/><rect x="75.141" y="12.252" fill="#000000" width="1" height="9.314"/><path fill="#000000" d="M37.526,45.831c-0.061-0.658-0.545-6.472,1.181-7.93c0.394-0.333,0.875-0.442,1.396-0.321   c0.677,0.031,1.939,0.531,2.286,2.263l-0.98,0.197c-0.289-1.445-1.362-1.462-1.373-1.462l-0.128-0.017   c-0.232-0.064-0.397-0.03-0.555,0.104c-1.003,0.848-1.042,4.789-0.83,7.074L37.526,45.831z"/><rect x="33.352" y="43.236" fill="#000000" width="2.049" height="1"/><rect x="40.425" y="43.236" fill="#000000" width="2.049" height="1"/><path fill="#000000" d="M59.002,45.459h-7.648v-4.75h7.648V45.459z M52.354,44.459h5.648v-2.75h-5.648V44.459z"/><rect x="58.606" y="41.932" fill="#000000" width="1.583" height="1"/><rect x="50.27" y="41.932" fill="#000000" width="1.584" height="1"/><rect x="54.678" y="39.078" fill="#000000" width="1" height="2.131"/></g></svg>