<svg xmlns="http://www.w3.org/2000/svg" xmlns:xlink="http://www.w3.org/1999/xlink" version="1.1" x="0px" y="0px" viewBox="0 0 100 125" enable-background="new 0 0 100 100" xml:space="preserve"><path d="M94.08,52h-88c-0.553,0-1,0.447-1,1s0.447,1,1,1H7v33.947C7,88.5,7.703,89,8.256,89h83.648C92.457,89,93,88.5,93,87.947V54  h1.08c0.553,0,1-0.447,1-1S94.633,52,94.08,52z M65,75h26v12H65V75z M91,73H65v-9h26V73z M63,87H38V54h25V87z M36,73H9v-9h27V73z   M9,75h27v12H9V75z M36,54v8H9v-8H36z M91,62H65v-8h26V62z M61,67c0-0.552-0.448-1-1-1H41c-0.552,0-1,0.448-1,1v14  c0,0.552,0.448,1,1,1h19c0.552,0,1-0.448,1-1V67z M59,80H42V68h17V80z M59.544,62H40.617c-0.553,0-1,0.447-1,1s0.447,1,1,1h18.927  c0.553,0,1-0.447,1-1S60.097,62,59.544,62z M40.797,56.547c0.683,0,1.236,0.553,1.236,1.236s-0.553,1.236-1.236,1.236  s-1.236-0.553-1.236-1.236S40.114,56.547,40.797,56.547z M45.483,56.547c0.683,0,1.236,0.553,1.236,1.236s-0.553,1.236-1.236,1.236  s-1.236-0.553-1.236-1.236S44.8,56.547,45.483,56.547z M50.17,56.547c0.683,0,1.236,0.553,1.236,1.236s-0.553,1.236-1.236,1.236  s-1.236-0.553-1.236-1.236S49.487,56.547,50.17,56.547z M54.857,56.547c0.683,0,1.236,0.553,1.236,1.236s-0.553,1.236-1.236,1.236  s-1.236-0.553-1.236-1.236S54.174,56.547,54.857,56.547z M59.544,56.547c0.683,0,1.236,0.553,1.236,1.236s-0.553,1.236-1.236,1.236  s-1.236-0.553-1.236-1.236S58.861,56.547,59.544,56.547z M20.17,59h4.563c0.553,0,1-0.447,1-1s-0.447-1-1-1H20.17  c-0.553,0-1,0.447-1,1S19.617,59,20.17,59z M20.17,68h4.563c0.553,0,1-0.447,1-1s-0.447-1-1-1H20.17c-0.553,0-1,0.447-1,1  S19.617,68,20.17,68z M24.732,77H20.17c-0.553,0-1,0.447-1,1s0.447,1,1,1h4.563c0.553,0,1-0.447,1-1S25.285,77,24.732,77z   M75.429,59h4.563c0.553,0,1-0.447,1-1s-0.447-1-1-1h-4.563c-0.553,0-1,0.447-1,1S74.876,59,75.429,59z M75.429,68h4.563  c0.553,0,1-0.447,1-1s-0.447-1-1-1h-4.563c-0.553,0-1,0.447-1,1S74.876,68,75.429,68z M79.991,77h-4.563c-0.553,0-1,0.447-1,1  s0.447,1,1,1h4.563c0.553,0,1-0.447,1-1S80.544,77,79.991,77z"/><path d="M93,12c0-0.552-0.448-1-1-1H69c-0.552,0-1,0.448-1,1v26c0,0.552,0.448,1,1,1h23c0.552,0,1-0.448,1-1V12z M70,22h21v6H70V22z   M70,37v-7h21v7H70z M91,13v7H70v-7H91z"/><path d="M27,27.591c-0.553,0-1,0.447-1,1v4.563c0,0.553,0.447,1,1,1s1-0.447,1-1v-4.563C28,28.038,27.553,27.591,27,27.591z M32,12  c0-0.552-0.448-1-1-1H8c-0.552,0-1,0.448-1,1v26c0,0.552,0.448,1,1,1h23c0.552,0,1-0.448,1-1V12z M9,13h21v24H9V13z"/><path d="M36.646,33h27.207c0.418,0,0.791-0.042,0.938-0.434c0.146-0.392,0.126-0.723-0.189-0.997L56,24.163V13h2.867  c0.553,0,1-0.447,1-1s-0.447-1-1-1H41.335c-0.553,0-1,0.447-1,1s0.447,1,1,1H45v11.163l-8.852,7.516  c-0.315,0.273-0.507,0.496-0.362,0.888C35.933,32.958,36.228,33,36.646,33z M46.498,25.159C46.717,24.969,47,24.91,47,24.62V13h7  v11.62c0,0.29,0.032,0.349,0.251,0.539L61.167,31H39.331L46.498,25.159z M63.092,34H37.125c-0.553,0-1,0.447-1,1s0.447,1,1,1h25.967  c0.553,0,1-0.447,1-1S63.645,34,63.092,34z"/></svg>